<svg width="50" height="50" viewBox="0 0 50 50" fill="none" xmlns="http://www.w3.org/2000/svg">
<path d="M47.6951 48.0465H45.5532V16.9465C45.5532 15.4989 44.3755 14.3213 42.928 14.3213H38.1405C36.693 14.3213 35.5153 15.499 35.5153 16.9465V48.0465H30.0767V31.0372C30.0767 29.5896 28.899 28.412 27.4515 28.412H22.664C21.2164 28.412 20.0388 29.5897 20.0388 31.0372V48.0465H14.6001V39.2375C14.6001 37.7899 13.4224 36.6123 11.9749 36.6123H7.1873C5.73975 36.6123 4.56211 37.79 4.56211 39.2375V48.0465H2.30469C1.76533 48.0465 1.32812 48.4837 1.32812 49.023C1.32812 49.5624 1.76533 49.9996 2.30469 49.9996H47.6951C48.2345 49.9996 48.6717 49.5624 48.6717 49.023C48.6717 48.4837 48.2345 48.0465 47.6951 48.0465ZM12.6468 48.0465H6.51514V39.2375C6.51514 38.8669 6.8166 38.5654 7.18721 38.5654H11.9747C12.3453 38.5654 12.6468 38.8669 12.6468 39.2375V48.0465ZM28.1234 48.0465H21.9918V31.0372C21.9918 30.6666 22.2933 30.3651 22.6639 30.3651H27.4514C27.8219 30.3651 28.1234 30.6666 28.1234 31.0372V48.0465ZM43.6001 48.0465H37.4685V16.9465C37.4685 16.5759 37.7699 16.2744 38.1405 16.2744H42.928C43.2986 16.2744 43.6001 16.5759 43.6001 16.9465V48.0465Z" fill="white"/>
<path d="M45.5484 1.02695C45.5621 0.760449 45.4683 0.489453 45.2648 0.285937C45.0613 0.0824219 44.7903 -0.0114258 44.5238 0.00234375C44.5081 0.00166016 44.4926 0 44.4765 0H38.5683C38.029 0 37.5918 0.437207 37.5918 0.976562C37.5918 1.51592 38.029 1.95312 38.5683 1.95312H42.2165L32.5625 11.6072L28.9219 7.9666C28.7387 7.7835 28.4903 7.68057 28.2313 7.68057C27.9723 7.68057 27.7239 7.7835 27.5408 7.9666L9.98523 25.5223C9.60388 25.9036 9.60388 26.522 9.98523 26.9034C10.176 27.0939 10.4259 27.1893 10.6758 27.1893C10.9257 27.1893 11.1757 27.0939 11.3663 26.9032L28.2313 10.0381L31.8719 13.6787C32.2533 14.0601 32.8717 14.0601 33.2531 13.6787L43.5976 3.33428V6.63604C43.5976 7.17539 44.0348 7.6126 44.5742 7.6126C45.1136 7.6126 45.5508 7.17539 45.5508 6.63604V1.07422C45.5508 1.0583 45.5491 1.04277 45.5484 1.02695Z" fill="white"/>
<path d="M7.38672 30.5967C7.92606 30.5967 8.36328 30.1595 8.36328 29.6201C8.36328 29.0808 7.92606 28.6436 7.38672 28.6436C6.84738 28.6436 6.41016 29.0808 6.41016 29.6201C6.41016 30.1595 6.84738 30.5967 7.38672 30.5967Z" fill="white"/>
</svg>
