<svg width="50" height="50" viewBox="0 0 50 50" fill="none" xmlns="http://www.w3.org/2000/svg">
<path d="M22.7696 23.2139C21.0467 23.2139 19.6445 24.6158 19.6445 26.339C19.6445 28.0621 21.0465 29.4641 22.7696 29.4641C24.4928 29.4641 25.8947 28.0621 25.8947 26.339C25.8947 24.6158 24.4925 23.2139 22.7696 23.2139ZM22.7696 27.678C22.0312 27.678 21.4303 27.0771 21.4303 26.3387C21.4303 25.6004 22.0312 24.9994 22.7696 24.9994C23.508 24.9994 24.1089 25.6004 24.1089 26.3387C24.1089 27.0771 23.5082 27.678 22.7696 27.678Z" fill="white"/>
<path d="M42.859 37.5001C41.3713 37.5001 40.005 38.0244 38.9307 38.8953L32.6395 33.1718C33.4531 31.8263 33.9302 30.2554 33.9302 28.5715C33.9302 23.9494 30.4 20.1376 25.8944 19.6882V12.4288C28.9182 11.9934 31.2516 9.39263 31.2516 6.24997C31.2518 2.80372 28.4481 0 25.0019 0C21.5556 0 18.7517 2.80372 18.7517 6.24997C18.7517 9.39242 21.085 11.9932 24.1088 12.4288V19.6882C19.6032 20.1378 16.0731 23.9497 16.0731 28.5715C16.0731 30.2549 16.5499 31.8256 17.3631 33.171L11.1251 38.9356C10.0432 38.0394 8.65577 37.5001 7.1445 37.5001C3.69825 37.5001 0.894531 40.3038 0.894531 43.75C0.894531 47.1963 3.69825 50 7.1445 50C10.5908 50 13.3947 47.1963 13.3947 43.75C13.3947 42.4576 13.0002 41.2555 12.3256 40.2578L18.4407 34.6066C20.0736 36.3802 22.4063 37.5001 25.0016 37.5001C27.597 37.5001 29.9299 36.3802 31.5628 34.6066L37.7171 40.2055C37.0199 41.2137 36.609 42.4342 36.609 43.75C36.609 47.1963 39.4127 50 42.859 50C46.3052 50 49.1089 47.1963 49.1089 43.75C49.1089 40.3038 46.3052 37.5001 42.859 37.5001ZM7.1445 48.2142C4.68298 48.2142 2.68011 46.2113 2.68011 43.7498C2.68011 41.2883 4.68298 39.2854 7.1445 39.2854C9.60602 39.2854 11.6089 41.2883 11.6089 43.7498C11.6089 46.2115 9.60602 48.2142 7.1445 48.2142ZM20.5375 6.24997C20.5375 3.78845 22.5403 1.78558 25.0019 1.78558C27.4634 1.78558 29.4662 3.78845 29.4662 6.24997C29.4662 8.71149 27.4634 10.7144 25.0019 10.7144C22.5403 10.7144 20.5375 8.71149 20.5375 6.24997ZM25.0019 35.7143C21.0633 35.7143 17.8591 32.5098 17.8591 28.5715C17.8591 24.6332 21.0635 21.4287 25.0019 21.4287C28.9402 21.4287 32.1446 24.6332 32.1446 28.5715C32.1446 32.5098 28.9402 35.7143 25.0019 35.7143ZM42.859 48.2142C40.3975 48.2142 38.3946 46.2113 38.3946 43.7498C38.3946 42.5365 38.8845 41.4377 39.6727 40.6323L39.7165 40.5842C40.5239 39.7825 41.6342 39.2854 42.859 39.2854C45.3205 39.2854 47.3234 41.2883 47.3234 43.7498C47.3232 46.2115 45.3203 48.2142 42.859 48.2142Z" fill="white"/>
<path d="M42.8604 40.1787C40.8912 40.1787 39.2891 41.7808 39.2891 43.7501C39.2891 44.2432 39.6889 44.6429 40.1819 44.6429C40.6748 44.6429 41.0746 44.243 41.0746 43.7501C41.0746 42.7654 41.8755 41.9643 42.8604 41.9643C43.3536 41.9643 43.7532 41.5644 43.7532 41.0715C43.7532 40.5784 43.3534 40.1787 42.8604 40.1787Z" fill="white"/>
<path d="M7.1456 40.1787C5.17634 40.1787 3.57422 41.7808 3.57422 43.7501C3.57422 44.2432 3.9741 44.6429 4.46701 44.6429C4.95992 44.6429 5.3598 44.243 5.3598 43.7501C5.3598 42.7654 6.16065 41.9643 7.1456 41.9643C7.63873 41.9643 8.03839 41.5644 8.03839 41.0715C8.03861 40.5784 7.63873 40.1787 7.1456 40.1787Z" fill="white"/>
<path d="M25.8939 3.5715C25.8939 3.07837 25.494 2.67871 25.0011 2.67871C23.0318 2.67871 21.4297 4.28083 21.4297 6.25009C21.4297 6.74322 21.8296 7.14288 22.3225 7.14288C22.8156 7.14288 23.2153 6.743 23.2153 6.25009C23.2153 5.26536 24.0161 4.46429 25.0011 4.46429C25.494 4.46451 25.8939 4.06463 25.8939 3.5715Z" fill="white"/>
</svg>
