<svg width="50" height="50" viewBox="0 0 50 50" fill="none" xmlns="http://www.w3.org/2000/svg">
<path d="M28.3167 13.4626C26.4845 11.635 23.519 11.635 21.6868 13.4626L20.582 12.3579C23.025 9.92107 26.9785 9.92107 29.4214 12.3579L28.3167 13.4626Z" fill="white"/>
<path d="M26.1033 15.6719C25.4853 15.0814 24.5118 15.0814 23.8938 15.6719L22.7891 14.5664C24.0262 13.388 25.9709 13.388 27.208 14.5664L26.1033 15.6719Z" fill="white"/>
<path d="M5.56307 40.691C4.32291 39.9459 2.73714 40.1268 1.69649 41.1319C0.47617 42.3523 0.47617 44.3309 1.69649 45.5513L5.56307 49.4186L9.43003 45.552C10.6507 44.3317 10.6507 42.353 9.43003 41.1327C8.38976 40.1268 6.80323 39.9456 5.56307 40.691ZM8.32567 44.4465L5.56307 47.2091L2.80123 44.4465C2.39496 44.0544 2.23207 43.4734 2.37513 42.9271C2.51818 42.3809 2.94466 41.954 3.49092 41.8109C4.03757 41.6683 4.61817 41.8312 5.0107 42.237L5.56307 42.7894L6.11544 42.237C6.7338 41.6465 7.70731 41.6465 8.32567 42.237C8.93564 42.8474 8.93564 43.8366 8.32567 44.4465Z" fill="white"/>
<path d="M45.2161 9.18439L49.0827 5.31781C50.303 4.09749 50.303 2.11881 49.0827 0.898488C48.0424 -0.107829 46.4562 -0.288646 45.2161 0.456746C43.9759 -0.288646 42.3898 -0.107829 41.3491 0.897725C40.1284 2.11805 40.1284 4.09673 41.3491 5.31705L45.2161 9.18439ZM42.4535 2.00284C43.0638 1.39249 44.0537 1.39249 44.6637 2.00284L45.2161 2.55521L45.7684 2.00284C46.3864 1.41271 47.3599 1.41271 47.9779 2.00284C48.5879 2.61319 48.5879 3.60235 47.9779 4.21232L45.2161 6.97492L42.4535 4.21232C41.8435 3.60235 41.8435 2.61319 42.4535 2.00284Z" fill="white"/>
<path d="M44.2131 26.3636L40.9515 9.69187L38.5796 14.4354H36.3499C37.3554 11.4054 36.2415 8.07482 33.6151 6.2594C30.9887 4.44399 27.4796 4.57865 25 6.59014C22.5204 4.57865 19.0113 4.44399 16.3849 6.2594C13.7585 8.07482 12.6446 11.4054 13.6501 14.4354H11.1423L8.77266 22.1354L5.80406 6.5497L1.86081 14.4354H0V15.9979H2.82669L5.13344 11.3841L8.41484 28.6105L12.2952 15.9979H14.389C14.6751 16.453 15.0112 16.8746 15.3908 17.2553L22.6562 24.5246V29.8457L21.8445 28.6177C21.1231 27.5294 19.7037 27.1498 18.5352 27.7323C17.8997 28.0467 17.4232 28.6105 17.2195 29.2895C17.012 29.9498 17.0853 30.6666 17.4217 31.2716L21.2265 39.123C21.6633 40.0149 22.4731 40.6668 23.4375 40.9037V49.9823H25V40.9979H27.7344V39.4354H24.2188C23.5439 39.4328 22.9294 39.0479 22.633 38.4417L18.8046 30.5457C18.5364 30.0673 18.6939 29.4623 19.1616 29.1758C19.6293 28.8889 20.24 29.0232 20.5444 29.4795L22.7345 32.7948H24.2188V19.9042C24.2188 19.4727 24.5686 19.1229 25 19.1229C25.4314 19.1229 25.7812 19.4727 25.7812 19.9042V28.8886H27.3438V25.7636H28.125C28.5564 25.7636 28.9062 26.1134 28.9062 26.5448V30.4511H30.4688V27.3261H31.25C31.6814 27.3261 32.0312 27.6759 32.0312 28.1073V32.0136H33.5938V28.8886H34.375C34.8064 28.8886 35.1562 29.2384 35.1562 29.6698V36.9074L33.5938 40.0324V49.9823H35.1562V40.4013L36.7188 37.2763V29.6698C36.7188 28.3755 35.6693 27.3261 34.375 27.3261H33.4602C33.128 26.3903 32.243 25.7647 31.25 25.7636H30.3352C30.003 24.8278 29.118 24.2022 28.125 24.2011H27.6672L34.6134 17.2553C34.9915 16.8742 35.326 16.4527 35.611 15.9979H39.5454L40.2985 14.4919L44.0681 33.7573L48.2742 15.9979H50V14.4354H47.0383L44.2131 26.3636ZM33.5087 16.1543L27.3438 22.3151V19.9042C27.3438 18.6099 26.2943 17.5604 25 17.5604C23.7057 17.5604 22.6562 18.6099 22.6562 19.9042V22.3151L16.4913 16.1543C14.2933 13.9571 14.2925 10.3942 16.4894 8.19612C18.6867 5.99809 22.2496 5.99695 24.4476 8.19422L25 8.74658L25.5524 8.19422C27.7504 5.99695 31.3133 5.99809 33.5106 8.19612C35.7075 10.3942 35.7067 13.9571 33.5087 16.1543Z" fill="white"/>
</svg>
