<svg width="50" height="50" viewBox="0 0 50 50" fill="none" xmlns="http://www.w3.org/2000/svg">
<path d="M39.623 29.6015L26.6759 7.38897C26.6681 7.37559 26.6592 7.36348 26.6509 7.35059L28.2404 2.56924C28.4377 1.97539 28.3371 1.31797 27.971 0.810449C27.605 0.30293 27.0127 0 26.3871 0H16.5945C15.9687 0 15.3765 0.303027 15.0105 0.810449C14.6445 1.31787 14.5437 1.97549 14.7412 2.56924L16.5688 8.06689L10.2664 38.5555C10.1998 38.8773 10.2997 39.2111 10.5321 39.4437L20.8001 49.7139C20.9832 49.8971 21.2317 50 21.4908 50C21.7499 50 21.9982 49.8971 22.1814 49.7139L32.4496 39.4437C32.682 39.2112 32.7819 38.8774 32.7153 38.5555L27.2934 12.3267L37.6991 30.179L33.8222 40.2077C33.6277 40.7107 33.8779 41.2762 34.381 41.4707C34.4968 41.5154 34.6158 41.5367 34.7329 41.5367C35.1246 41.5367 35.4943 41.2992 35.644 40.912L39.6902 30.4454C39.7972 30.1685 39.7725 29.8579 39.623 29.6015ZM26.3871 1.95312L24.6989 7.03125H18.2827L16.5945 1.95312H26.3871ZM24.2431 8.98438L16.8439 16.3835L18.3735 8.98438H24.2431ZM16.1287 19.8439C16.1674 19.8153 16.2051 19.7846 16.2402 19.7494L25.0187 10.9709L25.7756 14.6328L14.9728 25.4357L16.1287 19.8439ZM30.6959 38.4352L21.4908 47.6422L19.2813 45.4323L29.9392 34.7744L30.6959 38.4352ZM28.2384 26.5464C28.2034 26.573 28.1692 26.6014 28.1372 26.6333L19.4946 35.2759C19.1132 35.6572 19.1132 36.2756 19.4946 36.657C19.6853 36.8478 19.9352 36.9431 20.1851 36.9431C20.435 36.9431 20.685 36.8478 20.8756 36.657L28.7091 28.8235L29.4661 32.4854L17.9003 44.0511L12.2856 38.4352L12.3818 37.97L22.5198 27.832C22.9011 27.4507 22.9011 26.8323 22.5198 26.4509C22.1384 26.0695 21.5201 26.0695 21.1386 26.4509L13.1015 34.488L14.2541 28.9125C14.2684 28.8997 14.2831 28.8876 14.2968 28.8738L26.2489 16.9219L28.2384 26.5464Z" fill="white"/>
<path d="M18.4756 37.6738C18.2939 37.4922 18.042 37.3877 17.7852 37.3877C17.5283 37.3877 17.2764 37.4922 17.0947 37.6738C16.9131 37.8555 16.8086 38.1074 16.8086 38.3643C16.8086 38.6211 16.9131 38.873 17.0947 39.0547C17.2764 39.2363 17.5283 39.3408 17.7852 39.3408C18.042 39.3408 18.2939 39.2363 18.4756 39.0547C18.6572 38.873 18.7617 38.6211 18.7617 38.3643C18.7617 38.1074 18.6572 37.8555 18.4756 37.6738Z" fill="white"/>
<path d="M25.1318 23.8408C24.9502 23.6582 24.6982 23.5547 24.4414 23.5547C24.1836 23.5547 23.9326 23.6582 23.751 23.8408C23.5684 24.0225 23.4648 24.2744 23.4648 24.5313C23.4648 24.7881 23.5684 25.04 23.751 25.2217C23.9326 25.4033 24.1836 25.5078 24.4414 25.5078C24.6982 25.5078 24.9502 25.4033 25.1318 25.2217C25.3135 25.04 25.418 24.7881 25.418 24.5313C25.418 24.2744 25.3135 24.0225 25.1318 23.8408Z" fill="white"/>
</svg>
