<svg width="247" height="295" viewBox="0 0 247 295" fill="none" xmlns="http://www.w3.org/2000/svg">
<path opacity="0.5" fill-rule="evenodd" clip-rule="evenodd" d="M246.401 129.765L233.307 134.608V168.955L216.668 140.741L54.9815 200.569V70.9936L245.844 0.395447L246.401 129.765ZM175.072 108.187L209.797 95.1364L209.696 71.2917L175.072 84.304V108.187ZM167.838 111.052L133.113 124.102V100.22L167.737 87.2072L167.838 111.052ZM125.879 126.967L91.1542 140.018V116.135L125.778 103.123L125.879 126.967ZM0 138.996L46.3004 121.87V213.084L191.255 159.496L191.419 197.768L32.1927 256.852L12.2983 294.109V264.022L0 268.571V138.996Z" fill="url(#paint0_linear)"/>
<defs>
<linearGradient id="paint0_linear" x1="217.287" y1="23.858" x2="46.8873" y2="321.297" gradientUnits="userSpaceOnUse">
<stop stop-color="#DF519D"/>
<stop offset="1" stop-color="#4257A7"/>
</linearGradient>
</defs>
</svg>
