<svg width="950" height="620" viewBox="0 0 950 620" fill="none" xmlns="http://www.w3.org/2000/svg">
<path d="M779.895 419.826L591.958 528.268C577.838 536.316 553.41 535.328 537.172 526.009L212.977 338.919C196.739 329.6 195.045 315.338 209.024 307.29L396.961 198.848C411.081 190.8 435.508 191.788 451.746 201.108L775.942 388.198C792.18 397.517 793.874 411.637 779.895 419.826Z" stroke="#11002C" stroke-width="3.4391" stroke-miterlimit="10" stroke-linecap="round" stroke-linejoin="round"/>
<path d="M779.895 421.521L591.958 529.962C577.838 538.011 553.41 537.022 537.172 527.703L212.977 340.613C196.739 331.294 195.045 317.033 209.024 308.984L396.961 200.543C411.081 192.494 435.508 193.483 451.746 202.802L775.942 389.892C792.18 399.211 793.874 413.331 779.895 421.521Z" stroke="url(#paint0_linear)" stroke-width="1.7196" stroke-miterlimit="10" stroke-linecap="round" stroke-linejoin="round"/>
<path d="M705.202 481.954C653.24 511.889 607.492 529.962 602.973 522.196C598.455 514.43 637.002 483.79 688.964 453.856C740.926 423.921 786.674 405.848 791.193 413.614C795.57 421.38 757.022 451.879 705.202 481.954Z" fill="url(#paint1_radial)"/>
<path d="M694.33 479.978C690.659 482.096 685.717 480.684 683.458 476.73C681.199 472.776 682.328 467.834 686.141 465.716C689.812 463.598 694.754 465.01 697.013 468.964C699.272 472.918 698.143 477.86 694.33 479.978Z" fill="url(#paint2_radial)"/>
<path d="M706.616 473.624C702.944 475.742 698.002 474.33 695.743 470.376C693.484 466.422 694.614 461.48 698.426 459.362C702.097 457.244 707.039 458.656 709.298 462.61C711.416 466.564 710.287 471.506 706.616 473.624Z" fill="url(#paint3_radial)"/>
<path d="M720.311 465.717C716.64 467.835 711.698 466.423 709.438 462.469C707.179 458.516 708.309 453.574 712.121 451.456C715.792 449.338 720.734 450.75 722.994 454.703C725.253 458.657 724.123 463.599 720.311 465.717Z" fill="url(#paint4_radial)"/>
<path d="M384.113 418.273C466.574 465.858 529.267 511.465 524.325 520.079C519.383 528.692 448.5 497.204 366.04 449.62C283.579 402.035 220.886 356.428 225.828 347.815C230.77 339.06 301.652 370.689 384.113 418.273Z" fill="url(#paint5_radial)"/>
<path d="M349.944 428.581C346.273 426.463 345.002 421.521 347.261 417.567C349.521 413.614 354.321 412.202 358.134 414.32C361.946 416.438 363.076 421.38 360.817 425.333C358.557 429.287 353.615 430.84 349.944 428.581Z" fill="url(#paint6_radial)"/>
<path d="M361.522 435.923C357.851 433.805 356.58 428.863 358.839 424.909C361.099 420.956 365.899 419.544 369.712 421.662C373.524 423.78 374.654 428.722 372.395 432.675C370.135 436.629 365.193 438.041 361.522 435.923Z" fill="url(#paint7_radial)"/>
<path d="M375.362 443.83C371.691 441.712 370.42 436.77 372.679 432.817C374.938 428.863 379.739 427.451 383.552 429.569C387.223 431.687 388.494 436.629 386.234 440.583C383.975 444.536 379.174 445.948 375.362 443.83Z" fill="url(#paint8_radial)"/>
<path d="M697.293 491.838C696.022 491.132 694.187 491.132 692.916 491.838C691.645 492.544 691.645 493.674 692.916 494.38C694.187 495.086 696.022 495.086 697.293 494.38C698.564 493.674 698.564 492.544 697.293 491.838ZM687.268 497.627C685.997 496.921 684.162 496.921 682.891 497.627C681.62 498.333 681.62 499.463 682.891 500.169C684.162 500.875 685.997 500.875 687.268 500.169C688.398 499.463 688.398 498.333 687.268 497.627ZM677.102 503.417C675.831 502.711 673.995 502.711 672.724 503.417C671.454 504.123 671.454 505.252 672.724 505.958C673.995 506.664 675.831 506.664 677.102 505.958C678.372 505.252 678.372 504.123 677.102 503.417ZM667.076 509.206C665.806 508.5 663.97 508.5 662.699 509.206C661.428 509.912 661.428 511.041 662.699 511.747C663.97 512.453 665.806 512.453 667.076 511.747C668.347 511.041 668.347 509.912 667.076 509.206ZM737.535 468.54C736.264 467.834 734.429 467.834 733.158 468.54C731.887 469.246 731.887 470.376 733.158 471.082C734.429 471.788 736.264 471.788 737.535 471.082C738.806 470.376 738.806 469.246 737.535 468.54ZM727.51 474.329C726.239 473.623 724.404 473.623 723.133 474.329C721.862 475.035 721.862 476.165 723.133 476.871C724.404 477.577 726.239 477.577 727.51 476.871C728.781 476.165 728.781 475.035 727.51 474.329ZM717.485 480.119C716.214 479.413 714.378 479.413 713.108 480.119C711.837 480.825 711.837 481.954 713.108 482.66C714.378 483.366 716.214 483.366 717.485 482.66C718.614 481.954 718.614 480.825 717.485 480.119ZM707.318 486.049C706.048 485.343 704.212 485.343 702.941 486.049C701.67 486.755 701.67 487.885 702.941 488.591C704.212 489.297 706.048 489.297 707.318 488.591C708.589 487.885 708.589 486.755 707.318 486.049Z" fill="url(#paint9_linear)"/>
<path d="M710.426 499.463C709.155 498.757 707.32 498.757 706.049 499.463C704.778 500.169 704.778 501.299 706.049 502.005C707.32 502.711 709.155 502.711 710.426 502.005C711.697 501.299 711.697 500.169 710.426 499.463ZM700.401 505.252C699.13 504.546 697.294 504.546 696.024 505.252C694.753 505.958 694.753 507.088 696.024 507.794C697.294 508.5 699.13 508.5 700.401 507.794C701.672 507.088 701.672 505.958 700.401 505.252ZM690.376 511.042C689.105 510.336 687.269 510.336 685.998 511.042C684.728 511.748 684.728 512.877 685.998 513.583C687.269 514.289 689.105 514.289 690.376 513.583C691.505 512.877 691.505 511.748 690.376 511.042ZM680.209 516.831C678.938 516.125 677.103 516.125 675.832 516.831C674.561 517.537 674.561 518.666 675.832 519.372C677.103 520.078 678.938 520.078 680.209 519.372C681.48 518.666 681.48 517.537 680.209 516.831ZM750.668 476.165C749.397 475.459 747.562 475.459 746.291 476.165C745.02 476.871 745.02 478.001 746.291 478.707C747.562 479.413 749.397 479.413 750.668 478.707C751.939 478.001 751.939 476.871 750.668 476.165ZM740.643 481.954C739.372 481.248 737.536 481.248 736.266 481.954C734.995 482.66 734.995 483.79 736.266 484.496C737.536 485.202 739.372 485.202 740.643 484.496C741.914 483.79 741.914 482.66 740.643 481.954ZM730.618 487.744C729.347 487.038 727.511 487.038 726.24 487.744C724.97 488.45 724.97 489.579 726.24 490.285C727.511 490.991 729.347 490.991 730.618 490.285C731.747 489.579 731.747 488.45 730.618 487.744ZM720.592 493.533C719.322 492.827 717.486 492.827 716.215 493.533C714.944 494.239 714.944 495.368 716.215 496.074C717.486 496.78 719.322 496.78 720.592 496.074C721.722 495.368 721.722 494.239 720.592 493.533Z" fill="url(#paint10_linear)"/>
<path d="M723.696 506.947C722.425 506.241 720.589 506.241 719.318 506.947C718.048 507.653 718.048 508.782 719.318 509.488C720.589 510.194 722.425 510.194 723.696 509.488C724.825 508.782 724.825 507.653 723.696 506.947ZM713.529 512.877C712.258 512.171 710.423 512.171 709.152 512.877C707.881 513.583 707.881 514.713 709.152 515.419C710.423 516.125 712.258 516.125 713.529 515.419C714.8 514.713 714.8 513.583 713.529 512.877ZM703.504 518.666C702.233 517.96 700.398 517.96 699.127 518.666C697.856 519.372 697.856 520.502 699.127 521.208C700.398 521.914 702.233 521.914 703.504 521.208C704.775 520.502 704.775 519.372 703.504 518.666ZM693.479 524.455C692.208 523.749 690.372 523.749 689.102 524.455C687.831 525.161 687.831 526.291 689.102 526.997C690.372 527.703 692.208 527.703 693.479 526.997C694.608 526.291 694.608 525.161 693.479 524.455ZM763.938 483.79C762.667 483.084 760.831 483.084 759.56 483.79C758.29 484.496 758.29 485.625 759.56 486.331C760.831 487.037 762.667 487.037 763.938 486.331C765.067 485.625 765.067 484.496 763.938 483.79ZM753.771 489.579C752.5 488.873 750.665 488.873 749.394 489.579C748.123 490.285 748.123 491.415 749.394 492.121C750.665 492.827 752.5 492.827 753.771 492.121C755.042 491.415 755.042 490.285 753.771 489.579ZM743.746 495.368C742.475 494.662 740.64 494.662 739.369 495.368C738.098 496.074 738.098 497.204 739.369 497.91C740.64 498.616 742.475 498.616 743.746 497.91C745.017 497.204 745.017 496.074 743.746 495.368ZM733.721 501.157C732.45 500.451 730.614 500.451 729.344 501.157C728.073 501.863 728.073 502.993 729.344 503.699C730.614 504.405 732.45 504.405 733.721 503.699C734.85 502.993 734.85 501.863 733.721 501.157Z" fill="url(#paint11_linear)"/>
<defs>
<linearGradient id="paint0_linear" x1="289.026" y1="483.824" x2="347.729" y2="178.82" gradientUnits="userSpaceOnUse">
<stop stop-color="#010333" stop-opacity="0"/>
<stop offset="0.0413631" stop-color="#250258" stop-opacity="0.2184"/>
<stop offset="0.1103" stop-color="#5C018F" stop-opacity="0.5824"/>
<stop offset="0.1617" stop-color="#7E00B2" stop-opacity="0.8538"/>
<stop offset="0.1894" stop-color="#8B00BF"/>
<stop offset="0.3399" stop-color="#6544D1"/>
<stop offset="0.5231" stop-color="#3B91E4"/>
<stop offset="0.6748" stop-color="#1CC9F3"/>
<stop offset="0.787" stop-color="#08ECFC"/>
<stop offset="0.8474" stop-color="#01F9FF"/>
<stop offset="1" stop-color="#010333" stop-opacity="0"/>
</linearGradient>
<radialGradient id="paint1_radial" cx="0" cy="0" r="1" gradientUnits="userSpaceOnUse" gradientTransform="translate(697.112 467.827) rotate(59.9999) scale(20.4945 107.587)">
<stop stop-color="#01F9FF"/>
<stop offset="1" stop-color="#010333" stop-opacity="0"/>
</radialGradient>
<radialGradient id="paint2_radial" cx="0" cy="0" r="1" gradientUnits="userSpaceOnUse" gradientTransform="translate(690.161 471.963) rotate(60.0022) scale(8.05995 7.71967)">
<stop offset="0.0532153" stop-color="white"/>
<stop offset="0.1389" stop-color="#01F9FF"/>
<stop offset="0.1931" stop-color="#14C9F0"/>
<stop offset="0.3163" stop-color="#434FCC"/>
<stop offset="0.3217" stop-color="#454ACA"/>
<stop offset="0.3281" stop-color="#4449C8" stop-opacity="0.9906"/>
<stop offset="0.5628" stop-color="#282B89" stop-opacity="0.6445"/>
<stop offset="0.761" stop-color="#13155A" stop-opacity="0.3523"/>
<stop offset="0.9128" stop-color="#06083E" stop-opacity="0.1286"/>
<stop offset="1" stop-color="#010333" stop-opacity="0"/>
</radialGradient>
<radialGradient id="paint3_radial" cx="0" cy="0" r="1" gradientUnits="userSpaceOnUse" gradientTransform="translate(702.343 465.677) rotate(60.002) scale(8.05995 7.7197)">
<stop offset="0.0532153" stop-color="white"/>
<stop offset="0.1389" stop-color="#01F9FF"/>
<stop offset="0.1931" stop-color="#14C9F0"/>
<stop offset="0.3163" stop-color="#434FCC"/>
<stop offset="0.3217" stop-color="#454ACA"/>
<stop offset="0.3281" stop-color="#4449C8" stop-opacity="0.9906"/>
<stop offset="0.5628" stop-color="#282B89" stop-opacity="0.6445"/>
<stop offset="0.761" stop-color="#13155A" stop-opacity="0.3523"/>
<stop offset="0.9128" stop-color="#06083E" stop-opacity="0.1286"/>
<stop offset="1" stop-color="#010333" stop-opacity="0"/>
</radialGradient>
<radialGradient id="paint4_radial" cx="0" cy="0" r="1" gradientUnits="userSpaceOnUse" gradientTransform="translate(716.134 457.728) rotate(60.002) scale(8.0599 7.71966)">
<stop offset="0.0532153" stop-color="white"/>
<stop offset="0.1389" stop-color="#01F9FF"/>
<stop offset="0.1931" stop-color="#14C9F0"/>
<stop offset="0.3163" stop-color="#434FCC"/>
<stop offset="0.3217" stop-color="#454ACA"/>
<stop offset="0.3281" stop-color="#4449C8" stop-opacity="0.9906"/>
<stop offset="0.5628" stop-color="#282B89" stop-opacity="0.6445"/>
<stop offset="0.761" stop-color="#13155A" stop-opacity="0.3523"/>
<stop offset="0.9128" stop-color="#06083E" stop-opacity="0.1286"/>
<stop offset="1" stop-color="#010333" stop-opacity="0"/>
</radialGradient>
<radialGradient id="paint5_radial" cx="0" cy="0" r="1" gradientUnits="userSpaceOnUse" gradientTransform="translate(375.016 433.872) rotate(-59.9996) scale(22.8847 170.733)">
<stop stop-color="#8B00BF"/>
<stop offset="1" stop-color="#010333" stop-opacity="0"/>
</radialGradient>
<radialGradient id="paint6_radial" cx="0" cy="0" r="1" gradientUnits="userSpaceOnUse" gradientTransform="translate(355.15 420.708) rotate(119.577) scale(8.05513 7.71962)">
<stop offset="0.0532153" stop-color="white"/>
<stop offset="0.1385" stop-color="#8B00BF"/>
<stop offset="0.2943" stop-color="#5B06A6"/>
<stop offset="0.3217" stop-color="#5207A1"/>
<stop offset="0.4436" stop-color="#400688" stop-opacity="0.8203"/>
<stop offset="0.6949" stop-color="#1E045A" stop-opacity="0.4498"/>
<stop offset="0.8886" stop-color="#09033E" stop-opacity="0.1642"/>
<stop offset="1" stop-color="#010333" stop-opacity="0"/>
</radialGradient>
<radialGradient id="paint7_radial" cx="0" cy="0" r="1" gradientUnits="userSpaceOnUse" gradientTransform="translate(366.735 428.031) rotate(119.577) scale(8.05513 7.71962)">
<stop offset="0.0532153" stop-color="white"/>
<stop offset="0.1385" stop-color="#8B00BF"/>
<stop offset="0.2943" stop-color="#5B06A6"/>
<stop offset="0.3217" stop-color="#5207A1"/>
<stop offset="0.4436" stop-color="#400688" stop-opacity="0.8203"/>
<stop offset="0.6949" stop-color="#1E045A" stop-opacity="0.4498"/>
<stop offset="0.8886" stop-color="#09033E" stop-opacity="0.1642"/>
<stop offset="1" stop-color="#010333" stop-opacity="0"/>
</radialGradient>
<radialGradient id="paint8_radial" cx="0" cy="0" r="1" gradientUnits="userSpaceOnUse" gradientTransform="translate(380.575 435.9) rotate(119.577) scale(8.05513 7.71962)">
<stop offset="0.0532153" stop-color="white"/>
<stop offset="0.1385" stop-color="#8B00BF"/>
<stop offset="0.2943" stop-color="#5B06A6"/>
<stop offset="0.3217" stop-color="#5207A1"/>
<stop offset="0.4436" stop-color="#400688" stop-opacity="0.8203"/>
<stop offset="0.6949" stop-color="#1E045A" stop-opacity="0.4498"/>
<stop offset="0.8886" stop-color="#09033E" stop-opacity="0.1642"/>
<stop offset="1" stop-color="#010333" stop-opacity="0"/>
</radialGradient>
<linearGradient id="paint9_linear" x1="661.818" y1="490.169" x2="738.48" y2="490.169" gradientUnits="userSpaceOnUse">
<stop stop-color="#010333" stop-opacity="0"/>
<stop offset="0.1526" stop-color="#01F9FF"/>
<stop offset="0.213" stop-color="#08ECFC"/>
<stop offset="0.3252" stop-color="#1CC9F3"/>
<stop offset="0.4769" stop-color="#3B91E4"/>
<stop offset="0.6601" stop-color="#6544D1"/>
<stop offset="0.8106" stop-color="#8B00BF"/>
<stop offset="0.8383" stop-color="#7E00B2" stop-opacity="0.8538"/>
<stop offset="0.8897" stop-color="#5C018F" stop-opacity="0.5824"/>
<stop offset="0.9586" stop-color="#250258" stop-opacity="0.2184"/>
<stop offset="1" stop-color="#010333" stop-opacity="0"/>
</linearGradient>
<linearGradient id="paint10_linear" x1="674.983" y1="497.769" x2="751.645" y2="497.769" gradientUnits="userSpaceOnUse">
<stop stop-color="#010333" stop-opacity="0"/>
<stop offset="0.1526" stop-color="#01F9FF"/>
<stop offset="0.213" stop-color="#08ECFC"/>
<stop offset="0.3252" stop-color="#1CC9F3"/>
<stop offset="0.4769" stop-color="#3B91E4"/>
<stop offset="0.6601" stop-color="#6544D1"/>
<stop offset="0.8106" stop-color="#8B00BF"/>
<stop offset="0.8383" stop-color="#7E00B2" stop-opacity="0.8538"/>
<stop offset="0.8897" stop-color="#5C018F" stop-opacity="0.5824"/>
<stop offset="0.9586" stop-color="#250258" stop-opacity="0.2184"/>
<stop offset="1" stop-color="#010333" stop-opacity="0"/>
</linearGradient>
<linearGradient id="paint11_linear" x1="688.143" y1="505.369" x2="764.805" y2="505.369" gradientUnits="userSpaceOnUse">
<stop stop-color="#010333" stop-opacity="0"/>
<stop offset="0.1526" stop-color="#01F9FF"/>
<stop offset="0.213" stop-color="#08ECFC"/>
<stop offset="0.3252" stop-color="#1CC9F3"/>
<stop offset="0.4769" stop-color="#3B91E4"/>
<stop offset="0.6601" stop-color="#6544D1"/>
<stop offset="0.8106" stop-color="#8B00BF"/>
<stop offset="0.8383" stop-color="#7E00B2" stop-opacity="0.8538"/>
<stop offset="0.8897" stop-color="#5C018F" stop-opacity="0.5824"/>
<stop offset="0.9586" stop-color="#250258" stop-opacity="0.2184"/>
<stop offset="1" stop-color="#010333" stop-opacity="0"/>
</linearGradient>
</defs>
</svg>
