<svg width="950" height="620" viewBox="0 0 950 620" fill="none" xmlns="http://www.w3.org/2000/svg">
<path d="M362.502 276.368L385.935 289.898L385.369 290.224L362.572 277.062L357.211 280.157L356.574 279.79L362.502 276.368ZM404.474 278.461L405.11 278.828L391.171 286.875L390.669 286.585L389.416 275.441C389.239 273.895 388.878 272.712 388.333 271.892C387.765 271.06 386.946 270.335 385.875 269.717C384.201 268.75 382.378 268.282 380.405 268.313C378.453 268.332 376.543 268.88 374.677 269.958C373.247 270.783 372.241 271.635 371.657 272.513C371.073 273.391 370.884 274.325 371.089 275.315L370.203 275.285C369.803 273.197 371.082 271.299 374.041 269.591C376.007 268.456 378.101 267.865 380.324 267.819C382.547 267.772 384.584 268.284 386.437 269.354C387.62 270.036 388.508 270.825 389.103 271.718C389.698 272.612 390.086 273.856 390.269 275.452L391.458 285.975L404.474 278.461ZM393.455 267.467C393.256 267.581 392.988 267.633 392.651 267.622C392.314 267.61 392.033 267.54 391.81 267.411C391.565 267.269 391.443 267.108 391.446 266.926C391.426 266.731 391.516 266.576 391.714 266.462C391.933 266.335 392.201 266.284 392.518 266.307C392.833 266.305 393.113 266.375 393.359 266.517C393.582 266.646 393.703 266.808 393.723 267.003C393.763 267.186 393.673 267.341 393.455 267.467ZM409.222 276.57C409.024 276.685 408.756 276.736 408.418 276.725C408.081 276.714 407.801 276.644 407.577 276.515C407.332 276.373 407.21 276.211 407.213 276.029C407.193 275.834 407.283 275.68 407.481 275.565C407.7 275.439 407.968 275.387 408.285 275.41C408.6 275.409 408.881 275.479 409.126 275.621C409.349 275.749 409.471 275.911 409.49 276.106C409.53 276.289 409.441 276.444 409.222 276.57ZM421.632 269.406C420.063 270.312 418.193 270.837 416.022 270.982C413.849 271.103 411.532 270.843 409.071 270.202C406.631 269.549 404.228 268.54 401.862 267.174C399.496 265.809 397.748 264.421 396.618 263.012C395.508 261.591 395.069 260.26 395.301 259.018C395.53 257.752 396.429 256.666 397.997 255.761C399.566 254.855 401.437 254.342 403.61 254.221C405.781 254.076 408.087 254.33 410.528 254.982C412.988 255.623 415.401 256.627 417.767 257.993C420.133 259.359 421.871 260.752 422.981 262.172C424.111 263.581 424.561 264.919 424.332 266.185C424.1 267.427 423.2 268.501 421.632 269.406ZM420.996 269.039C422.445 268.202 423.268 267.199 423.465 266.029C423.662 264.858 423.232 263.612 422.173 262.291C421.093 260.956 419.425 259.638 417.171 258.337C414.917 257.035 412.646 256.079 410.356 255.468C408.044 254.844 405.875 254.589 403.848 254.702C401.821 254.816 400.083 255.291 398.633 256.128C397.184 256.965 396.361 257.968 396.164 259.138C395.967 260.309 396.409 261.561 397.489 262.896C398.547 264.218 400.204 265.529 402.458 266.831C404.712 268.132 406.995 269.095 409.306 269.719C411.596 270.33 413.754 270.578 415.781 270.465C417.808 270.351 419.546 269.876 420.996 269.039ZM424.275 252.419C427.353 250.642 430.147 249.699 432.658 249.589C435.147 249.467 437.484 250.037 439.671 251.3C441.635 252.434 442.637 253.711 442.675 255.132C442.711 256.529 441.617 257.869 439.393 259.153C437.884 260.024 436.183 260.658 434.29 261.055C432.374 261.439 430.608 261.532 428.991 261.331L428.943 260.857C430.453 261.041 432.104 260.951 433.896 260.587C435.687 260.223 437.308 259.622 438.757 258.785C440.822 257.593 441.844 256.372 441.823 255.122C441.799 253.847 440.883 252.688 439.076 251.644C437.067 250.484 434.924 249.969 432.647 250.099C430.369 250.228 427.751 251.147 424.792 252.855L420.861 255.124L411.183 248.265L421.757 242.161L422.393 242.528L412.326 248.339L420.85 254.396L424.275 252.419Z" fill="white"/>
<path d="M424.968 298.793L421.853 297.002L423.054 299.279L422.709 299.479L418.804 298.808L421.873 300.58L421.134 301.007L416.443 298.298L417.081 297.93L421.848 298.768L420.366 296.033L421.004 295.665L425.701 298.37L424.968 298.793ZM428.845 296.632C428.42 296.878 427.933 297.04 427.386 297.119C426.834 297.195 426.278 297.183 425.717 297.084C425.151 296.983 424.641 296.8 424.185 296.537C423.729 296.274 423.416 295.981 423.244 295.657C423.068 295.33 423.048 295.009 423.185 294.693C423.316 294.374 423.595 294.092 424.02 293.847C424.446 293.601 424.934 293.44 425.486 293.364C426.033 293.286 426.587 293.296 427.149 293.395C427.71 293.494 428.22 293.676 428.68 293.942C429.141 294.208 429.456 294.503 429.628 294.826C429.8 295.15 429.819 295.472 429.688 295.79C429.551 296.106 429.27 296.387 428.845 296.632ZM428.081 296.191C428.359 296.031 428.541 295.846 428.625 295.638C428.704 295.427 428.683 295.212 428.56 294.994C428.432 294.774 428.212 294.574 427.899 294.393C427.587 294.212 427.242 294.087 426.864 294.016C426.482 293.942 426.111 293.929 425.75 293.978C425.384 294.024 425.062 294.127 424.784 294.288C424.506 294.449 424.327 294.634 424.247 294.845C424.163 295.054 424.185 295.268 424.312 295.489C424.435 295.707 424.653 295.906 424.966 296.086C425.279 296.267 425.626 296.394 426.008 296.468C426.385 296.539 426.757 296.551 427.122 296.505C427.483 296.457 427.803 296.352 428.081 296.191ZM430.865 289.973L435.556 292.681L434.918 293.049L429.44 292.544L432.616 294.378L431.847 294.822L427.157 292.114L427.795 291.745L433.272 292.251L430.096 290.417L430.865 289.973ZM435.782 291.321C435.921 291.24 436.087 291.203 436.281 291.21C436.476 291.216 436.655 291.267 436.821 291.363C436.892 291.404 436.958 291.454 437.019 291.512C437.079 291.565 437.159 291.652 437.26 291.775L437.901 292.496L437.418 292.775L436.631 292.045C436.503 292.072 436.371 292.076 436.235 292.057C436.098 292.033 435.971 291.988 435.855 291.92C435.69 291.825 435.601 291.721 435.59 291.609C435.579 291.497 435.642 291.401 435.782 291.321ZM436.231 286.875L440.922 289.583L440.147 290.031L436.187 287.744L435.304 288.253L434.574 287.832L436.231 286.875ZM440.773 286.489C441.212 286.298 441.653 286.213 442.097 286.235C442.541 286.258 442.944 286.373 443.306 286.582C443.579 286.739 443.765 286.918 443.865 287.118C443.965 287.318 443.957 287.529 443.841 287.751C443.724 287.968 443.486 288.18 443.129 288.387C442.831 288.559 442.496 288.698 442.124 288.805C441.751 288.906 441.382 288.964 441.018 288.979L440.675 288.395C440.969 288.39 441.266 288.351 441.565 288.276C441.864 288.196 442.129 288.089 442.36 287.956C442.634 287.798 442.786 287.638 442.816 287.476C442.845 287.31 442.751 287.163 442.532 287.037C442.313 286.911 442.068 286.856 441.796 286.874C441.524 286.886 441.235 286.981 440.929 287.158L440.547 287.378L439.951 287.034L439.632 285.755L437.736 286.85L437.006 286.428L439.85 284.786L440.433 285.123L440.773 286.489ZM447.883 285.642C447.617 285.796 447.312 285.905 446.969 285.968C446.626 286.027 446.276 286.036 445.918 285.995L445.763 285.396C446.351 285.469 446.806 285.413 447.128 285.227C447.561 284.977 447.49 284.685 446.913 284.353L444.488 282.952L443.003 283.809L442.273 283.387L444.532 282.083L447.642 283.878C448.191 284.195 448.485 284.503 448.524 284.8C448.558 285.095 448.344 285.376 447.883 285.642ZM451.844 282.025L449.757 283.229L450.432 284.094L449.633 284.555L446.82 280.762L447.583 280.322L454.158 281.942L453.347 282.41L451.844 282.025ZM450.904 281.778L448.067 281.048L449.336 282.683L450.904 281.778ZM453.706 276.787L458.397 279.495L457.759 279.863L452.281 279.358L455.458 281.192L454.689 281.636L449.998 278.928L450.636 278.559L456.113 279.065L452.937 277.231L453.706 276.787Z" fill="white"/>
<path d="M506.674 303.055C505.12 302.913 503.567 302.349 502.438 301.643C501.873 301.36 501.449 300.937 501.026 300.513L479.14 313.221C478.716 313.503 478.434 313.927 478.434 314.209L504.556 312.091L506.674 303.055ZM480.128 315.621L496.931 325.364L497.354 325.505L496.648 314.351L480.128 315.621ZM506.956 312.939L506.532 313.362L505.826 313.645L498.202 314.209L498.908 325.505L499.614 325.223L526.865 309.409L527.43 308.985L507.803 308.561L506.956 312.939ZM509.215 303.055L508.227 307.432L527.43 307.855L527.289 307.714L515.71 301.078C515.428 301.219 515.146 301.501 514.863 301.643C513.31 302.49 511.333 303.055 509.215 303.055ZM503.708 295.147C501.026 296.701 501.026 299.242 503.708 300.937C506.391 302.49 510.91 302.49 513.592 300.937C516.275 299.383 516.275 296.842 513.592 295.147C510.91 293.594 506.391 293.594 503.708 295.147ZM513.169 298.536L509.78 300.513L508.792 299.948L509.921 299.383L506.674 297.548L505.826 298.395L504.838 297.83L506.674 296.277L511.192 298.819L512.322 298.254L513.169 298.536Z" fill="white"/>
<path d="M552.564 324.94L542.68 330.588L555.106 337.789C557.365 339.06 557.224 341.178 554.824 342.59L541.833 350.074L541.974 350.215C543.386 351.062 545.787 350.921 547.34 350.074L566.261 339.201L576.992 339.484L570.92 336.518L571.626 336.095C573.18 335.248 573.321 333.835 571.909 332.988L557.789 324.799C556.518 323.951 554.118 324.093 552.564 324.94ZM553.412 338.778L540.704 331.435C539.433 330.729 537.315 330.729 535.903 331.576L514.017 344.284C512.605 345.131 512.464 346.402 513.734 347.108L526.442 354.451C527.713 355.157 529.831 355.157 531.243 354.31L531.808 353.886L536.468 356.992L536.044 351.486L553.129 341.602C554.541 340.754 554.682 339.484 553.412 338.778Z" fill="white"/>
</svg>
