<svg width="950" height="620" viewBox="0 0 950 620" fill="none" xmlns="http://www.w3.org/2000/svg">
<path opacity="0.7" d="M264.798 195.601L554.681 362.923C557.788 364.758 561.6 364.758 564.706 362.923L724.121 270.86C730.758 267.048 730.758 257.446 724.121 253.493L434.238 86.1706C431.131 84.335 427.319 84.335 424.212 86.1706L264.798 178.233C258.161 182.045 258.161 191.647 264.798 195.601Z" fill="url(#paint0_linear)"/>
<path opacity="0.7" d="M724.122 270.86L564.707 362.923C561.601 364.758 557.788 364.758 554.682 362.923L264.798 195.601C261.692 193.765 259.998 190.659 259.856 187.411C259.715 190.941 261.268 194.612 264.798 196.589L554.682 363.911C557.788 365.747 561.601 365.747 564.707 363.911L724.122 271.849C727.652 269.872 729.205 266.201 729.064 262.671C728.923 265.918 727.228 269.025 724.122 270.86Z" fill="url(#paint1_linear)"/>
<defs>
<linearGradient id="paint0_linear" x1="437.956" y1="57.886" x2="552.008" y2="394.267" gradientUnits="userSpaceOnUse">
<stop stop-color="#5207A1"/>
<stop offset="0.5392" stop-color="#11002C"/>
<stop offset="1" stop-color="#5207A1"/>
</linearGradient>
<linearGradient id="paint1_linear" x1="452.331" y1="101.895" x2="550.697" y2="392.015" gradientUnits="userSpaceOnUse">
<stop stop-color="#8B00BF"/>
<stop offset="0.5388" stop-color="white"/>
<stop offset="0.9996" stop-color="#8B00BF"/>
</linearGradient>
</defs>
</svg>
