<svg width="1411" height="1235" viewBox="0 0 1411 1235" fill="none" xmlns="http://www.w3.org/2000/svg">
<path d="M869.593 1159.92L650.964 737.298L807.215 656.509L922.86 880.009L923.443 881.136L923.785 879.914L1155.81 51.9835L1156.09 51.0087L1155.15 51.3843L356.578 370.462L355.399 370.933L356.583 371.392L591.022 462.36L527.429 626.359L83.818 454.266L82.9433 290.309L1255.92 -178.333L1373.49 -72.7468L1032.7 1143.22L869.593 1159.92Z" stroke="#4D4470"/>
<path d="M855.099 608.832L796.979 496.482L838.068 475.237L868.793 534.616L869.376 535.743L869.718 534.522L931.7 313.354L931.974 312.379L931.033 312.755L717.709 397.991L716.53 398.462L717.714 398.921L779.999 423.089L763.276 466.216L645.347 420.467L645.116 377.167L958.014 252.154L989.083 280.056L898.174 604.423L855.099 608.832Z" stroke="#4D4470"/>
</svg>
