<svg width="1440" height="1759" viewBox="0 0 1440 1759" fill="none" xmlns="http://www.w3.org/2000/svg">
<path d="M584.513 74.469L803.141 497.091L646.891 577.88L531.246 354.38L530.663 353.253L530.32 354.475L298.292 1182.41L298.019 1183.38L298.959 1183L1097.53 863.928L1098.71 863.456L1097.52 862.997L863.084 772.029L926.676 608.03L1370.29 780.123L1371.16 944.08L198.187 1412.72L80.6121 1307.14L421.405 91.1644L584.513 74.469Z" stroke="#4D4470"/>
<path d="M599.006 625.557L657.126 737.906L616.037 759.151L585.313 699.772L584.73 698.645L584.387 699.867L522.405 921.035L522.132 922.01L523.072 921.634L736.396 836.398L737.575 835.927L736.392 835.468L674.107 811.299L690.829 768.173L808.758 813.922L808.989 857.222L496.092 982.234L465.023 954.333L555.931 629.966L599.006 625.557Z" stroke="#4D4470"/>
</svg>
