<svg width="244" height="52" viewBox="0 0 244 52" fill="none" xmlns="http://www.w3.org/2000/svg">
<path d="M9.87389 39.1437L5.72883 38.6619L0 8.93235L4.29854 8.10431L8.71665 31.0338L14.7452 17.6005L18.7376 19.3931L9.87389 39.1437Z" fill="white"/>
<path d="M21.815 39.1437L17.5193 29.5688L21.5129 27.7782L22.9735 31.0322L27.3903 8.10431L31.6889 8.93235L25.9597 38.6619L21.815 39.1437Z" fill="white"/>
<path d="M101.043 8.10228V12.4792C107.188 12.4792 112.186 17.4789 112.186 23.6238C112.186 29.7691 107.188 34.7684 101.043 34.7684C94.8973 34.7684 89.8979 29.7687 89.8979 23.6238V0H85.521V36.593H89.8979V34.4025C92.7217 37.3216 96.6705 39.1458 101.043 39.1458C109.6 39.1458 116.563 32.1829 116.563 23.6238C116.563 15.0647 109.6 8.10228 101.043 8.10228Z" fill="white"/>
<path d="M143.641 39.1764C135.082 39.1764 128.119 32.2136 128.119 23.6545C128.119 15.0954 135.082 8.13257 143.641 8.13257C149.101 8.13257 154.058 10.918 156.902 15.5858L153.163 17.8627C151.121 14.5117 147.561 12.5099 143.641 12.5099C137.496 12.5099 132.496 17.5096 132.496 23.6545C132.496 29.7994 137.496 34.7991 143.641 34.7991C147.58 34.7991 151.269 32.6834 153.266 29.2779L157.041 31.4922C154.263 36.2314 149.128 39.1764 143.641 39.1764Z" fill="white"/>
<path d="M216.886 50.3396H212.509V23.8314C212.509 15.2727 219.472 8.30948 228.031 8.30948C236.588 8.30948 243.551 15.2723 243.551 23.8314C243.551 32.3905 236.588 39.3534 228.031 39.3534V34.9764C234.176 34.9764 239.174 29.9767 239.174 23.8318C239.174 17.6869 234.176 12.6872 228.031 12.6872C221.885 12.6872 216.886 17.6869 216.886 23.8318V50.3396H216.886Z" fill="white"/>
<path d="M58.4436 39.1764C49.8849 39.1764 42.9216 32.2136 42.9216 23.6545C42.9216 15.0954 49.8845 8.13257 58.4436 8.13257C67.0011 8.13257 73.9639 15.0954 73.9639 23.6545V25.843H58.4436V21.4661H69.3717C68.3514 16.3653 63.8392 12.5099 58.4436 12.5099C52.2983 12.5099 47.2989 17.5096 47.2989 23.6545C47.2989 29.7994 52.2987 34.7991 58.4436 34.7991V39.1764Z" fill="white"/>
<path d="M197.989 39.1522L186.962 34.9789L188.511 30.8855L194.344 33.0926L184.931 14.0145L175.51 33.091L181.338 30.8855L182.887 34.9789L171.861 39.1522L169.124 36.1357L182.971 8.10147H186.895L200.726 36.1357L197.989 39.1522Z" fill="url(#paint0_linear)"/>
<path d="M131.166 42.5403H131.969L128.923 51.2376H128.119L131.166 42.5403Z" fill="white"/>
<path d="M138.427 50.1619C137.975 50.0109 137.62 49.8154 137.361 49.5754L137.702 48.8552C137.949 49.077 138.264 49.2568 138.649 49.3957C139.033 49.5342 139.429 49.6033 139.835 49.6033C140.37 49.6033 140.771 49.5124 141.035 49.3311C141.299 49.1493 141.432 48.9078 141.432 48.606C141.432 48.3843 141.36 48.2045 141.215 48.0656C141.071 47.9274 140.892 47.8212 140.68 47.7469C140.468 47.673 140.167 47.5902 139.779 47.4977C139.293 47.3809 138.901 47.2638 138.602 47.1467C138.304 47.0299 138.048 46.8498 137.836 46.607C137.624 46.3638 137.517 46.0363 137.517 45.6235C137.517 45.2789 137.608 44.9683 137.79 44.6912C137.971 44.4137 138.246 44.1928 138.616 44.0264C138.985 43.8603 139.444 43.7771 139.991 43.7771C140.373 43.7771 140.749 43.8264 141.118 43.9246C141.487 44.0235 141.804 44.1649 142.069 44.3495L141.765 45.0883C141.494 44.9158 141.204 44.7849 140.897 44.6961C140.589 44.6064 140.287 44.562 139.992 44.562C139.469 44.562 139.076 44.6577 138.815 44.8479C138.553 45.039 138.423 45.2854 138.423 45.5867C138.423 45.8085 138.496 45.9882 138.644 46.1263C138.792 46.2649 138.975 46.3727 139.193 46.4495C139.411 46.5262 139.709 46.6082 140.084 46.6943C140.571 46.811 140.962 46.9281 141.257 47.0449C141.553 47.162 141.806 47.3401 142.019 47.5805C142.231 47.8208 142.337 48.1435 142.337 48.5499C142.337 48.8888 142.245 49.1978 142.061 49.4777C141.876 49.7576 141.595 49.9794 141.22 50.1426C140.845 50.3057 140.384 50.3869 139.836 50.3869C139.349 50.3881 138.88 50.313 138.427 50.1619Z" fill="white"/>
<path d="M150.416 44.6545H148.2V43.8511H153.546V44.6545H151.33V50.3142H150.416V44.6545Z" fill="white"/>
<path d="M160.637 49.6498C160.157 49.1574 159.917 48.4489 159.917 47.5264V43.8515H160.84V47.4892C160.84 48.8738 161.447 49.5666 162.659 49.5666C163.25 49.5666 163.703 49.3957 164.016 49.054C164.33 48.7127 164.487 48.1908 164.487 47.4892V43.8515H165.383V47.5264C165.383 48.4558 165.143 49.1647 164.663 49.6546C164.183 50.1438 163.511 50.3882 162.65 50.3882C161.788 50.3882 161.117 50.1422 160.637 49.6498Z" fill="white"/>
<path d="M172.815 43.8515H175.538C176.222 43.8515 176.828 43.9868 177.357 44.2578C177.887 44.5288 178.298 44.9085 178.59 45.3981C178.882 45.8872 179.029 46.4491 179.029 47.0829C179.029 47.717 178.882 48.2785 178.59 48.7676C178.298 49.2568 177.887 49.6373 177.357 49.9079C176.828 50.1789 176.222 50.3142 175.538 50.3142H172.815V43.8515ZM175.483 49.5108C176.006 49.5108 176.467 49.4094 176.864 49.2063C177.261 49.0031 177.567 48.7183 177.782 48.352C177.998 47.986 178.105 47.5627 178.105 47.0829C178.105 46.603 177.998 46.1793 177.782 45.8137C177.567 45.4474 177.26 45.1626 176.864 44.9594C176.467 44.7563 176.006 44.6549 175.483 44.6549H173.738V49.5112H175.483V49.5108Z" fill="white"/>
<path d="M185.98 43.8515H186.904V50.3142H185.98V43.8515Z" fill="white"/>
<path d="M195.537 49.9592C195.013 49.6724 194.603 49.2774 194.304 48.7725C194.005 48.268 193.856 47.7049 193.856 47.0829C193.856 46.4616 194.005 45.8981 194.304 45.3932C194.602 44.8887 195.013 44.4929 195.537 44.2065C196.06 43.9205 196.648 43.7776 197.3 43.7776C197.946 43.7776 198.531 43.9205 199.054 44.2065C199.577 44.4933 199.987 44.8867 200.282 45.3888C200.577 45.8905 200.725 46.4552 200.725 47.0829C200.725 47.711 200.577 48.2756 200.282 48.7769C199.987 49.2786 199.577 49.6724 199.054 49.9592C198.531 50.2452 197.946 50.3882 197.3 50.3882C196.648 50.3882 196.06 50.2452 195.537 49.9592ZM198.579 49.2434C198.957 49.0277 199.256 48.7309 199.474 48.352C199.693 47.9735 199.802 47.5506 199.802 47.0829C199.802 46.6151 199.693 46.1918 199.474 45.8137C199.256 45.4349 198.957 45.138 198.579 44.9223C198.2 44.707 197.774 44.5995 197.3 44.5995C196.826 44.5995 196.397 44.707 196.012 44.9223C195.627 45.138 195.326 45.4349 195.107 45.8137C194.889 46.1922 194.779 46.6151 194.779 47.0829C194.779 47.5506 194.889 47.9739 195.107 48.352C195.326 48.7309 195.627 49.0277 196.012 49.2434C196.397 49.4587 196.826 49.5662 197.3 49.5662C197.774 49.5662 198.2 49.4587 198.579 49.2434Z" fill="white"/>
<defs>
<linearGradient id="paint0_linear" x1="196.992" y1="10.5819" x2="180.865" y2="44.7315" gradientUnits="userSpaceOnUse">
<stop stop-color="#DF519D"/>
<stop offset="1" stop-color="#4257A7"/>
</linearGradient>
</defs>
</svg>
