<svg width="19" height="24" viewBox="0 0 19 24" fill="none" xmlns="http://www.w3.org/2000/svg">
<path d="M10.0625 0.28125C11.5156 0.328125 12.875 0.65625 14.1875 1.3125C15.5 1.96875 16.5312 2.8125 17.2812 3.9375C18.0781 5.15625 18.5 6.5625 18.5 8.0625C18.5 9.5625 18.2188 11.0156 17.75 12.3281C17.1875 13.8281 16.3906 14.9531 15.3594 15.7969C14.1875 16.7344 12.8281 17.2031 11.2812 17.2031C10.625 17.2031 10.0156 17.0625 9.40625 16.7812C8.75 16.5 8.32812 16.0781 8.04688 15.5156L7.67188 17.0156C7.25 18.6562 6.92188 19.7812 6.6875 20.3906C6.3125 21.2344 5.60938 22.3125 4.67188 23.625L4.48438 23.7188L4.34375 23.5781L4.29688 22.875C4.20312 22.0312 4.15625 21.375 4.15625 20.9062C4.15625 19.9688 4.29688 18.75 4.625 17.25C4.8125 16.4062 5.09375 15.0938 5.5625 13.3594L6.125 11.1094C5.79688 10.5469 5.65625 9.75 5.65625 8.76562C5.65625 7.875 5.89062 7.125 6.35938 6.51562C6.73438 6.04688 7.25 5.71875 7.85938 5.57812C8.42188 5.48438 8.9375 5.57812 9.40625 5.90625C9.82812 6.28125 10.0625 6.79688 10.0625 7.54688C10.0625 7.96875 9.96875 8.4375 9.875 8.90625C9.78125 9.1875 9.64062 9.65625 9.45312 10.2188C9.21875 10.8281 9.07812 11.25 9.03125 11.5312C8.89062 12.0469 8.84375 12.4688 8.84375 12.8438C8.84375 13.4531 9.03125 13.9688 9.45312 14.3438C9.875 14.7188 10.3906 14.9062 11 14.9062C11.9844 14.9062 12.8281 14.4844 13.5312 13.5938C14.0938 12.8906 14.5625 11.9062 14.8438 10.6875C15.0781 9.70312 15.2188 8.71875 15.2188 7.73438C15.2188 6.14062 14.7031 4.875 13.6719 3.9375C12.6406 3.04688 11.3281 2.57812 9.6875 2.57812C8.46875 2.57812 7.34375 2.85938 6.3125 3.42188C5.28125 3.98438 4.53125 4.78125 3.96875 5.71875C3.40625 6.70312 3.125 7.82812 3.125 9.04688C3.125 9.60938 3.21875 10.125 3.40625 10.5938C3.5 10.875 3.64062 11.25 3.92188 11.625C4.10938 11.9531 4.20312 12.1406 4.20312 12.2344C4.20312 12.5156 4.10938 12.7969 4.01562 13.1719C3.82812 13.6406 3.6875 13.875 3.5 13.875C3.07812 13.875 2.65625 13.6875 2.1875 13.2656C1.71875 12.8438 1.29688 12.2812 1.01562 11.5312C0.640625 10.6875 0.5 9.75 0.5 8.71875C0.5 7.03125 0.96875 5.53125 1.90625 4.21875C2.75 3 3.92188 2.0625 5.42188 1.35938C6.875 0.65625 8.42188 0.28125 10.0625 0.28125Z" fill="#4257A7"/>
</svg>
