<svg width="19" height="16" viewBox="0 0 19 16" fill="none" xmlns="http://www.w3.org/2000/svg">
<path d="M16.6367 4.59375C17.3398 4.06641 17.9727 3.43359 18.5 2.66016C17.7969 2.97656 17.0938 3.1875 16.3906 3.25781C17.1641 2.76562 17.7266 2.09766 18.0078 1.21875C17.2695 1.64062 16.4961 1.95703 15.6523 2.09766C15.3008 1.74609 14.8789 1.46484 14.4219 1.25391C13.9648 1.04297 13.4727 0.9375 12.9453 0.9375C12.2773 0.9375 11.6797 1.11328 11.1172 1.42969C10.5547 1.78125 10.0977 2.23828 9.78125 2.80078C9.42969 3.36328 9.28906 3.99609 9.28906 4.62891C9.28906 4.91016 9.28906 5.19141 9.35938 5.47266C7.84766 5.40234 6.44141 5.05078 5.10547 4.34766C3.76953 3.67969 2.67969 2.76562 1.76562 1.60547C1.41406 2.20312 1.23828 2.83594 1.23828 3.46875C1.23828 4.10156 1.37891 4.69922 1.69531 5.22656C1.97656 5.78906 2.39844 6.21094 2.89062 6.5625C2.29297 6.5625 1.73047 6.38672 1.23828 6.07031V6.14062C1.23828 7.01953 1.51953 7.79297 2.08203 8.46094C2.64453 9.16406 3.34766 9.58594 4.19141 9.76172C3.83984 9.83203 3.52344 9.86719 3.20703 9.86719C2.99609 9.86719 2.75 9.86719 2.53906 9.83203C2.75 10.5703 3.17188 11.168 3.80469 11.6602C4.4375 12.1523 5.14062 12.3633 5.98438 12.3633C4.61328 13.418 3.06641 13.9453 1.37891 13.9453C1.02734 13.9453 0.746094 13.9453 0.5 13.9102C2.1875 15.0352 4.08594 15.5625 6.16016 15.5625C8.30469 15.5625 10.2031 15.0352 11.8906 13.9102C13.4023 12.9258 14.5977 11.625 15.4414 9.9375C16.25 8.39062 16.6719 6.73828 16.6719 5.05078C16.6719 4.83984 16.6367 4.69922 16.6367 4.59375Z" fill="#4257A7"/>
</svg>
